<svg data-v-0dd9719b="" version="1.0" xmlns="http://www.w3.org/2000/svg" xmlns:xlink="http://www.w3.org/1999/xlink" width="100%" height="100%" viewBox="0 0 340.000000 250.000000" preserveAspectRatio="xMidYMid meet" color-interpolation-filters="sRGB" style="margin: auto;"> <rect data-v-0dd9719b="" x="0" y="0" width="100%" height="100%" fill="#ffffff" fill-opacity="1" class="background"></rect> <!----> <g data-v-0dd9719b="" fill="#3c4352" class="newinitialsvg-g newinitialsvg" transform="translate(74.71600124239922,90.16940307617188)"><g class="tp-name" transform="translate(6.316123962402344,0)"><g transform="translate(0, 0)"><g data-gra="path-name" fill="#3c4352" transform="translate(0,3)"><g transform="scale(1)"><path d="M21.62-22.48L19.63-22.48Q16.62-22.48 12.80-21.34L12.80-21.34L12.80-7.68L21.34-7.68Q23.61-7.68 23.61-9.96L23.61-9.96L23.61-20.48Q23.61-21.34 23.05-21.91Q22.48-22.48 21.62-22.48L21.62-22.48ZM24.47 0L12.80 0L12.80 9.67L2.85 9.67L2.85-30.16L11.67-30.16L12.23-27.31Q14.91-29.08 17.73-29.90Q20.54-30.73 22.48-30.73L22.48-30.73L25.04-30.73Q28.91-30.73 31.24-28.39Q33.57-26.06 33.57-22.19L33.57-22.19L33.57-9.10Q33.57-4.84 31.15-2.42Q28.74 0 24.47 0L24.47 0Z" transform="translate(-2.8451261751608117, 39.83176645225136)"></path></g></g></g><g transform="translate(34.72736269173677, 0)"><g data-gra="path-name" fill="#3c4352" transform="translate(0,3)"><g transform="scale(1)"><path d="M18.21-7.40L18.21 0Q14.40 0.57 10.95 0.57Q7.51 0.57 5.18-1.76Q2.85-4.10 2.85-7.97L2.85-7.97L2.85-39.83L12.80-39.83L12.80-9.39Q12.80-8.54 13.37-7.97Q13.94-7.40 14.79-7.40L14.79-7.40L18.21-7.40Z" transform="translate(-2.8451261751608117, 39.83176645225136)"></path></g></g></g><g transform="translate(54.09104403760515, 0)"><g data-gra="path-name" fill="#3c4352" transform="translate(0,3)"><g transform="scale(1)"><path d="M13.37-7.40L14.79-7.40Q17.81-7.40 21.62-8.54L21.62-8.54L21.62-11.95L13.37-11.95Q12.52-11.95 11.95-11.38Q11.38-10.81 11.38-9.96L11.38-9.96L11.38-9.39Q11.38-8.54 11.95-7.97Q12.52-7.40 13.37-7.40L13.37-7.40ZM4.27-22.48L4.27-29.59Q14.68-30.73 23.05-30.73L23.05-30.73Q26.91-30.73 29.25-28.39Q31.58-26.06 31.58-22.19L31.58-22.19L31.58 0L22.76 0L22.19-2.85Q19.52-1.08 16.70-0.26Q13.88 0.57 11.95 0.57L11.95 0.57L9.96 0.57Q6.09 0.57 3.76-1.76Q1.42-4.10 1.42-7.97L1.42-7.97L1.42-10.53Q1.42-14.40 3.76-16.73Q6.09-19.06 9.96-19.06L9.96-19.06L21.62-19.06L21.62-21.34Q21.62-22.19 21.05-22.76Q20.48-23.33 19.63-23.33L19.63-23.33Q15.93-23.33 11.47-22.99Q7.00-22.65 4.27-22.48L4.27-22.48Z" transform="translate(-1.4225630875804058, 39.83176645225136)"></path></g></g></g><g transform="translate(88.24938149430974, 0)"><g data-gra="path-name" fill="#3c4352" transform="translate(0,3)"><g transform="scale(1)"><path d="M21.62-22.48L19.63-22.48Q16.62-22.48 12.80-21.34L12.80-21.34L12.80 0L2.85 0L2.85-30.16L11.67-30.16L12.23-27.31Q14.91-29.08 17.73-29.90Q20.54-30.73 22.48-30.73L22.48-30.73L25.04-30.73Q28.91-30.73 31.24-28.39Q33.57-26.06 33.57-22.19L33.57-22.19L33.57 0L23.61 0L23.61-20.48Q23.61-21.34 23.05-21.91Q22.48-22.48 21.62-22.48L21.62-22.48Z" transform="translate(-2.8451261751608117, 39.83176645225136)"></path></g></g></g><g class="tp-graph" transform="translate(122.9767441860465, 0)" mask="url(#499a1035-d1c3-4ee6-8897-cae2bcec16a5)"><rect data-gra="graph-name" fill="#3c4352" x="0" y="0" width="28.76100940128649" height="55.505195447798116"></rect> <g data-gra="path-name" transform="translate(3.000504586202327,3)"><g transform="scale(1)" fill="#3c4352"><path d="M23.90-7.40L23.90 0Q18.38 0.57 13.09 0.57L13.09 0.57Q9.22 0.57 6.89-1.76Q4.55-4.10 4.55-7.97L4.55-7.97L4.55-22.48L1.14-22.48L1.14-30.16L4.55-30.16L5.69-36.99L14.51-36.99L14.51-30.16L21.62-30.16L21.62-22.48L14.51-22.48L14.51-9.39Q14.51-8.54 15.08-7.97Q15.65-7.40 16.50-7.40L16.50-7.40L23.90-7.40Z" transform="translate(-1.1380504700643244, 39.83176645225136)"></path></g></g></g><g transform="translate(155.737753587333, 0)"><g data-gra="path-name" fill="#3c4352" transform="translate(0,3)"><g transform="scale(1)"><path d="M25.04-21.91L20.20-21.91Q16.62-21.91 12.80-20.20L12.80-20.20L12.80 0L2.85 0L2.85-30.16L11.67-30.16L12.23-26.46Q17.13-30.73 22.48-30.73L22.48-30.73L25.04-30.73L25.04-21.91Z" transform="translate(-2.8451261751608117, 39.83176645225136)"></path></g></g></g></g> <g data-gra="path-slogan" fill-rule="" class="tp-slogan" fill="#3c4352" transform="translate(0,61.50519561767578)"><!----> <!----> <g transform="scale(1, 1)"><g transform="scale(1)"><path d="M0.28-7.87L1.94 0L3.13 0L4.30-4.74C4.36-5.04 4.43-5.34 4.49-5.63C4.56-5.93 4.63-6.22 4.69-6.53L4.74-6.53C4.80-6.22 4.87-5.93 4.93-5.63C4.99-5.34 5.05-5.04 5.12-4.74L6.31 0L7.51 0L9.14-7.87L8.18-7.87L7.36-3.59C7.28-3.16 7.20-2.74 7.13-2.32C7.06-1.90 6.98-1.48 6.91-1.04L6.86-1.04C6.77-1.48 6.67-1.90 6.58-2.33C6.48-2.75 6.38-3.17 6.29-3.59L5.20-7.87L4.28-7.87L3.19-3.59C3.10-3.16 3.01-2.74 2.92-2.32C2.82-1.90 2.73-1.48 2.64-1.04L2.59-1.04C2.52-1.48 2.44-1.90 2.36-2.32C2.28-2.73 2.21-3.16 2.14-3.59L1.31-7.87ZM10.51-7.87L10.51 0L11.51 0L11.51-3.71L15.17-3.71L15.17 0L16.18 0L16.18-7.87L15.17-7.87L15.17-4.57L11.51-4.57L11.51-7.87ZM18.34-7.87L18.34 0L22.99 0L22.99-0.85L19.33-0.85L19.33-3.71L22.32-3.71L22.32-4.56L19.33-4.56L19.33-7.03L22.87-7.03L22.87-7.87ZM25.66-4.14L25.66-7.07L26.98-7.07C27.59-7.07 28.06-6.96 28.39-6.76C28.72-6.55 28.88-6.18 28.88-5.66C28.88-5.15 28.72-4.77 28.39-4.52C28.06-4.27 27.59-4.14 26.98-4.14ZM28.98 0L30.11 0L28.12-3.43C28.65-3.57 29.08-3.82 29.40-4.19C29.72-4.56 29.88-5.05 29.88-5.66C29.88-6.07 29.81-6.42 29.68-6.70C29.54-6.98 29.35-7.20 29.11-7.38C28.86-7.56 28.57-7.68 28.23-7.76C27.89-7.83 27.52-7.87 27.12-7.87L24.66-7.87L24.66 0L25.66 0L25.66-3.32L27.08-3.32ZM31.63-7.87L31.63 0L36.29 0L36.29-0.85L32.63-0.85L32.63-3.71L35.62-3.71L35.62-4.56L32.63-4.56L32.63-7.03L36.17-7.03L36.17-7.87ZM40.40-1.72L39.80-1.02C40.15-0.66 40.56-0.38 41.03-0.17C41.50 0.04 42.01 0.14 42.56 0.14C42.98 0.14 43.35 0.09 43.68-0.03C44.01-0.15 44.29-0.31 44.52-0.51C44.75-0.71 44.93-0.95 45.05-1.22C45.18-1.50 45.24-1.79 45.24-2.10C45.24-2.39 45.20-2.64 45.11-2.86C45.03-3.08 44.92-3.27 44.77-3.44C44.63-3.60 44.46-3.75 44.26-3.87C44.06-3.99 43.84-4.10 43.62-4.20L42.50-4.68C42.34-4.74 42.19-4.81 42.04-4.89C41.88-4.97 41.74-5.05 41.62-5.15C41.49-5.25 41.39-5.37 41.31-5.50C41.23-5.63 41.20-5.80 41.20-5.99C41.20-6.35 41.33-6.63 41.60-6.83C41.87-7.04 42.22-7.14 42.66-7.14C43.03-7.14 43.36-7.07 43.65-6.94C43.94-6.81 44.21-6.63 44.45-6.40L44.99-7.04C44.71-7.33 44.37-7.57 43.97-7.75C43.57-7.93 43.13-8.02 42.66-8.02C42.30-8.02 41.97-7.96 41.67-7.86C41.37-7.76 41.11-7.61 40.89-7.42C40.67-7.23 40.50-7.01 40.37-6.76C40.25-6.50 40.19-6.22 40.19-5.93C40.19-5.64 40.24-5.39 40.33-5.17C40.43-4.95 40.55-4.76 40.70-4.60C40.86-4.44 41.03-4.30 41.22-4.19C41.41-4.08 41.60-3.98 41.78-3.90L42.91-3.41C43.10-3.32 43.27-3.24 43.43-3.16C43.59-3.08 43.73-2.99 43.84-2.89C43.96-2.79 44.05-2.67 44.12-2.53C44.19-2.39 44.22-2.22 44.22-2.02C44.22-1.63 44.08-1.32 43.79-1.09C43.50-0.85 43.10-0.73 42.58-0.73C42.17-0.73 41.77-0.82 41.39-1.00C41.01-1.18 40.68-1.42 40.40-1.72ZM46.33-3.94C46.33-3.30 46.42-2.72 46.59-2.21C46.76-1.71 47.00-1.28 47.31-0.93C47.62-0.58 47.98-0.32 48.40-0.13C48.82 0.05 49.28 0.14 49.78 0.14C50.28 0.14 50.73 0.04 51.12-0.16C51.51-0.36 51.86-0.64 52.18-1.00L51.61-1.61C51.36-1.33 51.09-1.11 50.80-0.96C50.52-0.81 50.18-0.73 49.80-0.73C49.42-0.73 49.09-0.81 48.79-0.96C48.49-1.11 48.23-1.33 48.02-1.61C47.82-1.89 47.65-2.23 47.54-2.62C47.42-3.02 47.36-3.46 47.36-3.96C47.36-4.45 47.42-4.89 47.54-5.28C47.66-5.67 47.83-6.01 48.05-6.28C48.26-6.56 48.52-6.77 48.83-6.92C49.13-7.07 49.47-7.14 49.85-7.14C50.18-7.14 50.48-7.07 50.73-6.94C50.98-6.81 51.21-6.63 51.42-6.41L51.98-7.04C51.75-7.30 51.46-7.53 51.10-7.72C50.74-7.92 50.32-8.02 49.84-8.02C49.33-8.02 48.87-7.92 48.44-7.73C48.01-7.55 47.64-7.28 47.33-6.92C47.02-6.57 46.77-6.14 46.60-5.64C46.42-5.14 46.33-4.57 46.33-3.94ZM53.64-7.87L53.64 0L54.64 0L54.64-3.71L58.30-3.71L58.30 0L59.30 0L59.30-7.87L58.30-7.87L58.30-4.57L54.64-4.57L54.64-7.87ZM61.46-7.87L61.46 0L66.12 0L66.12-0.85L62.46-0.85L62.46-3.71L65.45-3.71L65.45-4.56L62.46-4.56L62.46-7.03L66-7.03L66-7.87ZM67.79-7.87L67.79 0L69.80 0C70.40 0 70.92-0.09 71.38-0.27C71.83-0.45 72.22-0.71 72.53-1.05C72.84-1.39 73.08-1.81 73.24-2.30C73.40-2.79 73.48-3.35 73.48-3.97C73.48-5.23 73.16-6.19 72.53-6.86C71.90-7.54 70.97-7.87 69.76-7.87ZM69.68-0.82L68.78-0.82L68.78-7.06L69.68-7.06C70.60-7.06 71.29-6.79 71.75-6.26C72.21-5.74 72.44-4.97 72.44-3.97C72.44-2.97 72.21-2.20 71.75-1.64C71.29-1.09 70.60-0.82 69.68-0.82ZM75.13-7.87L75.13-3.25C75.13-2.62 75.20-2.09 75.35-1.66C75.49-1.22 75.69-0.87 75.94-0.61C76.19-0.34 76.49-0.15 76.84-0.03C77.19 0.09 77.56 0.14 77.96 0.14C78.36 0.14 78.74 0.09 79.08-0.03C79.42-0.15 79.72-0.34 79.97-0.61C80.23-0.87 80.42-1.22 80.57-1.66C80.71-2.09 80.78-2.62 80.78-3.25L80.78-7.87L79.82-7.87L79.82-3.23C79.82-2.76 79.78-2.36 79.68-2.04C79.58-1.72 79.45-1.46 79.28-1.27C79.12-1.08 78.92-0.94 78.70-0.86C78.47-0.77 78.23-0.73 77.96-0.73C77.71-0.73 77.47-0.77 77.24-0.86C77.02-0.94 76.83-1.08 76.66-1.27C76.50-1.46 76.37-1.72 76.27-2.04C76.18-2.36 76.13-2.76 76.13-3.23L76.13-7.87ZM82.91-7.87L82.91 0L87.35 0L87.35-0.85L83.90-0.85L83.90-7.87ZM88.74-7.87L88.74 0L93.40 0L93.40-0.85L89.74-0.85L89.74-3.71L92.72-3.71L92.72-4.56L89.74-4.56L89.74-7.03L93.28-7.03L93.28-7.87ZM95.09-1.72L94.49-1.02C94.83-0.66 95.24-0.38 95.71-0.17C96.18 0.04 96.70 0.14 97.25 0.14C97.66 0.14 98.04 0.09 98.36-0.03C98.69-0.15 98.97-0.31 99.20-0.51C99.44-0.71 99.61-0.95 99.74-1.22C99.86-1.50 99.92-1.79 99.92-2.10C99.92-2.39 99.88-2.64 99.80-2.86C99.71-3.08 99.60-3.27 99.46-3.44C99.31-3.60 99.14-3.75 98.94-3.87C98.74-3.99 98.53-4.10 98.30-4.20L97.19-4.68C97.03-4.74 96.87-4.81 96.72-4.89C96.57-4.97 96.43-5.05 96.30-5.15C96.17-5.25 96.07-5.37 95.99-5.50C95.92-5.63 95.88-5.80 95.88-5.99C95.88-6.35 96.01-6.63 96.28-6.83C96.55-7.04 96.90-7.14 97.34-7.14C97.71-7.14 98.04-7.07 98.33-6.94C98.63-6.81 98.89-6.63 99.13-6.40L99.67-7.04C99.39-7.33 99.05-7.57 98.65-7.75C98.25-7.93 97.82-8.02 97.34-8.02C96.98-8.02 96.65-7.96 96.35-7.86C96.05-7.76 95.79-7.61 95.57-7.42C95.35-7.23 95.18-7.01 95.06-6.76C94.93-6.50 94.87-6.22 94.87-5.93C94.87-5.64 94.92-5.39 95.02-5.17C95.11-4.95 95.24-4.76 95.39-4.60C95.54-4.44 95.71-4.30 95.90-4.19C96.10-4.08 96.28-3.98 96.47-3.90L97.60-3.41C97.78-3.32 97.95-3.24 98.11-3.16C98.27-3.08 98.41-2.99 98.53-2.89C98.64-2.79 98.73-2.67 98.80-2.53C98.87-2.39 98.90-2.22 98.90-2.02C98.90-1.63 98.76-1.32 98.47-1.09C98.18-0.85 97.78-0.73 97.26-0.73C96.85-0.73 96.46-0.82 96.08-1.00C95.70-1.18 95.37-1.42 95.09-1.72ZM103.92-1.72L103.32-1.02C103.66-0.66 104.07-0.38 104.54-0.17C105.02 0.04 105.53 0.14 106.08 0.14C106.50 0.14 106.87 0.09 107.20-0.03C107.52-0.15 107.80-0.31 108.04-0.51C108.27-0.71 108.45-0.95 108.57-1.22C108.69-1.50 108.76-1.79 108.76-2.10C108.76-2.39 108.71-2.64 108.63-2.86C108.55-3.08 108.43-3.27 108.29-3.44C108.14-3.60 107.97-3.75 107.77-3.87C107.57-3.99 107.36-4.10 107.14-4.20L106.02-4.68C105.86-4.74 105.70-4.81 105.55-4.89C105.40-4.97 105.26-5.05 105.13-5.15C105.00-5.25 104.90-5.37 104.83-5.50C104.75-5.63 104.71-5.80 104.71-5.99C104.71-6.35 104.85-6.63 105.11-6.83C105.38-7.04 105.74-7.14 106.18-7.14C106.54-7.14 106.87-7.07 107.17-6.94C107.46-6.81 107.72-6.63 107.96-6.40L108.50-7.04C108.22-7.33 107.88-7.57 107.48-7.75C107.08-7.93 106.65-8.02 106.18-8.02C105.82-8.02 105.49-7.96 105.19-7.86C104.89-7.76 104.63-7.61 104.41-7.42C104.19-7.23 104.01-7.01 103.89-6.76C103.77-6.50 103.70-6.22 103.70-5.93C103.70-5.64 103.75-5.39 103.85-5.17C103.94-4.95 104.07-4.76 104.22-4.60C104.37-4.44 104.54-4.30 104.74-4.19C104.93-4.08 105.12-3.98 105.30-3.90L106.43-3.41C106.61-3.32 106.78-3.24 106.94-3.16C107.10-3.08 107.24-2.99 107.36-2.89C107.47-2.79 107.57-2.67 107.63-2.53C107.70-2.39 107.74-2.22 107.74-2.02C107.74-1.63 107.59-1.32 107.30-1.09C107.02-0.85 106.61-0.73 106.09-0.73C105.68-0.73 105.29-0.82 104.91-1.00C104.53-1.18 104.20-1.42 103.92-1.72ZM111.49-3.05L111.49 0L112.50 0L112.50-3.05L114.86-7.87L113.82-7.87L112.81-5.65C112.69-5.36 112.56-5.08 112.43-4.80C112.29-4.52 112.16-4.23 112.02-3.94L111.97-3.94C111.84-4.23 111.71-4.52 111.59-4.80C111.47-5.08 111.34-5.36 111.22-5.65L110.20-7.87L109.13-7.87ZM115.93-7.87L115.93 0L116.88 0L116.88-4.12C116.88-4.53 116.87-4.95 116.84-5.36C116.81-5.77 116.78-6.18 116.75-6.58L116.80-6.58L117.65-4.96L120.50 0L121.54 0L121.54-7.87L120.59-7.87L120.59-3.80C120.59-3.39 120.60-2.97 120.63-2.54C120.66-2.11 120.68-1.70 120.71-1.30L120.66-1.30L119.81-2.93L116.96-7.87ZM123.24-3.94C123.24-3.30 123.33-2.72 123.50-2.21C123.67-1.71 123.91-1.28 124.22-0.93C124.53-0.58 124.89-0.32 125.31-0.13C125.73 0.05 126.19 0.14 126.68 0.14C127.19 0.14 127.64 0.04 128.03-0.16C128.42-0.36 128.77-0.64 129.08-1.00L128.52-1.61C128.26-1.33 127.99-1.11 127.71-0.96C127.43-0.81 127.09-0.73 126.71-0.73C126.33-0.73 125.99-0.81 125.69-0.96C125.39-1.11 125.14-1.33 124.93-1.61C124.72-1.89 124.56-2.23 124.45-2.62C124.33-3.02 124.27-3.46 124.27-3.96C124.27-4.45 124.33-4.89 124.45-5.28C124.57-5.67 124.74-6.01 124.96-6.28C125.17-6.56 125.43-6.77 125.74-6.92C126.04-7.07 126.38-7.14 126.76-7.14C127.09-7.14 127.39-7.07 127.64-6.94C127.89-6.81 128.12-6.63 128.33-6.41L128.89-7.04C128.66-7.30 128.36-7.53 128.00-7.72C127.64-7.92 127.22-8.02 126.74-8.02C126.24-8.02 125.77-7.92 125.35-7.73C124.92-7.55 124.55-7.28 124.24-6.92C123.92-6.57 123.68-6.14 123.50-5.64C123.33-5.14 123.24-4.57 123.24-3.94ZM132.97-7.87L132.97 0L133.92 0L133.92-4.12C133.92-4.53 133.91-4.95 133.88-5.36C133.85-5.77 133.82-6.18 133.79-6.58L133.84-6.58L134.69-4.96L137.54 0L138.58 0L138.58-7.87L137.63-7.87L137.63-3.80C137.63-3.39 137.64-2.97 137.67-2.54C137.70-2.11 137.72-1.70 137.75-1.30L137.70-1.30L136.85-2.93L134.00-7.87ZM144.08-3.20L141.72-3.20L142.09-4.40C142.24-4.84 142.37-5.28 142.50-5.72C142.63-6.15 142.75-6.60 142.87-7.06L142.92-7.06C143.05-6.60 143.18-6.15 143.30-5.72C143.43-5.28 143.57-4.84 143.71-4.40ZM144.34-2.40L145.08 0L146.15 0L143.48-7.87L142.36-7.87L139.69 0L140.71 0L141.47-2.40ZM148.42-7.03L148.42 0L149.42 0L149.42-7.03L151.80-7.03L151.80-7.87L146.04-7.87L146.04-7.03ZM153.18-7.87L153.18-3.25C153.18-2.62 153.25-2.09 153.40-1.66C153.54-1.22 153.74-0.87 153.99-0.61C154.24-0.34 154.54-0.15 154.89-0.03C155.24 0.09 155.61 0.14 156.01 0.14C156.41 0.14 156.78 0.09 157.13-0.03C157.47-0.15 157.77-0.34 158.02-0.61C158.27-0.87 158.47-1.22 158.62-1.66C158.76-2.09 158.83-2.62 158.83-3.25L158.83-7.87L157.87-7.87L157.87-3.23C157.87-2.76 157.82-2.36 157.73-2.04C157.63-1.72 157.50-1.46 157.33-1.27C157.16-1.08 156.97-0.94 156.74-0.86C156.52-0.77 156.28-0.73 156.01-0.73C155.76-0.73 155.52-0.77 155.29-0.86C155.07-0.94 154.87-1.08 154.71-1.27C154.55-1.46 154.42-1.72 154.32-2.04C154.22-2.36 154.18-2.76 154.18-3.23L154.18-7.87ZM161.95-4.14L161.95-7.07L163.27-7.07C163.89-7.07 164.36-6.96 164.69-6.76C165.02-6.55 165.18-6.18 165.18-5.66C165.18-5.15 165.02-4.77 164.69-4.52C164.36-4.27 163.89-4.14 163.27-4.14ZM165.28 0L166.40 0L164.41-3.43C164.95-3.57 165.38-3.82 165.70-4.19C166.02-4.56 166.18-5.05 166.18-5.66C166.18-6.07 166.11-6.42 165.97-6.70C165.84-6.98 165.65-7.20 165.40-7.38C165.16-7.56 164.87-7.68 164.53-7.76C164.19-7.83 163.82-7.87 163.42-7.87L160.96-7.87L160.96 0L161.95 0L161.95-3.32L163.38-3.32ZM171.16-3.20L168.79-3.20L169.16-4.40C169.31-4.84 169.44-5.28 169.57-5.72C169.70-6.15 169.82-6.60 169.94-7.06L169.99-7.06C170.12-6.60 170.25-6.15 170.38-5.72C170.50-5.28 170.64-4.84 170.78-4.40ZM171.41-2.40L172.15 0L173.22 0L170.56-7.87L169.43-7.87L166.76 0L167.78 0L168.54-2.40ZM174.34-7.87L174.34 0L178.78 0L178.78-0.85L175.33-0.85L175.33-7.87ZM180.17-7.87L180.17 0L184.61 0L184.61-0.85L181.16-0.85L181.16-7.87ZM186.36-3.05L186.36 0L187.37 0L187.37-3.05L189.73-7.87L188.69-7.87L187.68-5.65C187.56-5.36 187.43-5.08 187.30-4.80C187.16-4.52 187.02-4.23 186.89-3.94L186.84-3.94C186.70-4.23 186.58-4.52 186.46-4.80C186.34-5.08 186.21-5.36 186.08-5.65L185.06-7.87L184.00-7.87ZM189.41-0.60C189.41-0.38 189.48-0.21 189.62-0.07C189.76 0.07 189.93 0.14 190.13 0.14C190.32 0.14 190.49 0.07 190.63-0.07C190.77-0.21 190.84-0.38 190.84-0.60C190.84-0.83 190.77-1.02 190.63-1.16C190.49-1.30 190.32-1.37 190.13-1.37C189.93-1.37 189.76-1.30 189.62-1.16C189.48-1.02 189.41-0.83 189.41-0.60Z" transform="translate(-0.276, 8.016)"></path></g></g></g></g><mask id="499a1035-d1c3-4ee6-8897-cae2bcec16a5"><rect data-gra="graph-name" x="0" y="0" width="28.76100940128649" height="55.505195447798116" fill="white"></rect> <g data-gra="path-name" transform="translate(3.000504586202327,3)" fill="black"><g transform="scale(1)"><path d="M23.90-7.40L23.90 0Q18.38 0.57 13.09 0.57L13.09 0.57Q9.22 0.57 6.89-1.76Q4.55-4.10 4.55-7.97L4.55-7.97L4.55-22.48L1.14-22.48L1.14-30.16L4.55-30.16L5.69-36.99L14.51-36.99L14.51-30.16L21.62-30.16L21.62-22.48L14.51-22.48L14.51-9.39Q14.51-8.54 15.08-7.97Q15.65-7.40 16.50-7.40L16.50-7.40L23.90-7.40Z" transform="translate(-1.1380504700643244, 39.83176645225136)"></path></g></g></mask><defs v-gra="od"></defs></svg>